<?xml version="1.0" encoding="UTF-8" standalone="no"?>
<!-- Created with Inkscape (http://www.inkscape.org/) -->

<svg
   xmlns:dc="http://purl.org/dc/elements/1.1/"
   xmlns:cc="http://creativecommons.org/ns#"
   xmlns:rdf="http://www.w3.org/1999/02/22-rdf-syntax-ns#"
   xmlns:svg="http://www.w3.org/2000/svg"
   xmlns="http://www.w3.org/2000/svg"
   xmlns:sodipodi="http://sodipodi.sourceforge.net/DTD/sodipodi-0.dtd"
   xmlns:inkscape="http://www.inkscape.org/namespaces/inkscape"
   width="64"
   height="64"
   id="svg3544"
   version="1.1"
   inkscape:version="0.91 r13725"
   viewBox="0 0 64 64"
   sodipodi:docname="logo.svg"
   inkscape:export-filename="C:\Users\marcus\Documents\Devel\PIDEV\pimatic-dev\node_modules\pimatic-denon-avr\assets\images\logo-x128.png"
   inkscape:export-xdpi="180"
   inkscape:export-ydpi="180">
  <defs
     id="defs3546" />
  <sodipodi:namedview
     id="base"
     pagecolor="#ffffff"
     bordercolor="#666666"
     borderopacity="1.0"
     inkscape:pageopacity="0.0"
     inkscape:pageshadow="2"
     inkscape:zoom="5.5"
     inkscape:cx="45.65486"
     inkscape:cy="21.20332"
     inkscape:current-layer="layer1"
     showgrid="true"
     inkscape:document-units="px"
     inkscape:grid-bbox="true"
     inkscape:window-width="1344"
     inkscape:window-height="777"
     inkscape:window-x="-8"
     inkscape:window-y="-8"
     inkscape:window-maximized="1"
     showguides="false" />
  <metadata
     id="metadata3549">
    <rdf:RDF>
      <cc:Work
         rdf:about="">
        <dc:format>image/svg+xml</dc:format>
        <dc:type
           rdf:resource="http://purl.org/dc/dcmitype/StillImage" />
        <dc:title></dc:title>
      </cc:Work>
    </rdf:RDF>
  </metadata>
  <g
     id="layer1"
     inkscape:label="Layer 1"
     inkscape:groupmode="layer">
    <g
       id="g8437"
       transform="translate(1032.2727,564.36359)">
      <rect
         y="-564.36359"
         x="-1032.2727"
         height="64"
         width="64"
         id="rect4797"
         style="opacity:0.98999999;fill:#b3b3b3;fill-opacity:1;stroke-width:1.5;stroke-miterlimit:4;stroke-dasharray:none" />
      <g
         transform="translate(-901.28173,-382.45)"
         id="g8427">
        <path
           inkscape:connector-curvature="0"
           style="color:#000000;font-style:normal;font-variant:normal;font-weight:normal;font-stretch:normal;font-size:medium;line-height:normal;font-family:sans-serif;text-indent:0;text-align:start;text-decoration:none;text-decoration-line:none;text-decoration-style:solid;text-decoration-color:#000000;letter-spacing:normal;word-spacing:normal;text-transform:none;direction:ltr;block-progression:tb;writing-mode:lr-tb;baseline-shift:baseline;text-anchor:start;white-space:normal;clip-rule:nonzero;display:inline;overflow:visible;visibility:visible;opacity:1;isolation:auto;mix-blend-mode:normal;color-interpolation:sRGB;color-interpolation-filters:linearRGB;solid-color:#000000;solid-opacity:1;fill:#000000;fill-opacity:1;fill-rule:nonzero;stroke:none;stroke-width:0.85583872;stroke-linecap:butt;stroke-linejoin:miter;stroke-miterlimit:4;stroke-dasharray:none;stroke-dashoffset:0;stroke-opacity:1;color-rendering:auto;image-rendering:auto;shape-rendering:auto;text-rendering:auto;enable-background:accumulate"
           d="m -117.72461,-160.66797 0,33.92969 0.42383,0 50.406249,0 0,-0.85547 -0.84961,0 -0.07031,0 -49.060549,0 0,-32.2168 48.759768,0 c 0.01633,-1.2e-4 0.03166,-9.7e-4 0.04883,0 l 0.193359,0 0,-0.006 0.978516,0 0,-0.85156 -50.830083,0 z"
           id="path8327" />
        <path
           inkscape:connector-curvature="0"
           style="color:#000000;font-style:normal;font-variant:normal;font-weight:normal;font-stretch:normal;font-size:medium;line-height:normal;font-family:sans-serif;text-indent:0;text-align:start;text-decoration:none;text-decoration-line:none;text-decoration-style:solid;text-decoration-color:#000000;letter-spacing:normal;word-spacing:normal;text-transform:none;direction:ltr;block-progression:tb;writing-mode:lr-tb;baseline-shift:baseline;text-anchor:start;white-space:normal;clip-rule:nonzero;display:inline;overflow:visible;visibility:visible;opacity:1;isolation:auto;mix-blend-mode:normal;color-interpolation:sRGB;color-interpolation-filters:linearRGB;solid-color:#000000;solid-opacity:1;fill:#000000;fill-opacity:1;fill-rule:nonzero;stroke:none;stroke-width:0.85583872;stroke-linecap:butt;stroke-linejoin:miter;stroke-miterlimit:4;stroke-dasharray:none;stroke-dashoffset:0;stroke-opacity:1;color-rendering:auto;image-rendering:auto;shape-rendering:auto;text-rendering:auto;enable-background:accumulate"
           d="m -66.898438,-152.44141 c 0.0015,10e-4 0.0024,0.003 0.0039,0.004 l 0,-0.004 c -0.0013,7e-5 -0.0026,-7e-5 -0.0039,0 z"
           id="path8325" />
        <path
           style="color:#000000;font-style:normal;font-variant:normal;font-weight:normal;font-stretch:normal;font-size:medium;line-height:normal;font-family:sans-serif;text-indent:0;text-align:start;text-decoration:none;text-decoration-line:none;text-decoration-style:solid;text-decoration-color:#000000;letter-spacing:normal;word-spacing:normal;text-transform:none;direction:ltr;block-progression:tb;writing-mode:lr-tb;baseline-shift:baseline;text-anchor:start;white-space:normal;clip-rule:nonzero;display:inline;overflow:visible;visibility:visible;opacity:1;isolation:auto;mix-blend-mode:normal;color-interpolation:sRGB;color-interpolation-filters:linearRGB;solid-color:#000000;solid-opacity:1;fill:#000000;fill-opacity:1;fill-rule:nonzero;stroke:none;stroke-width:1.17299998;stroke-linecap:butt;stroke-linejoin:miter;stroke-miterlimit:4;stroke-dasharray:none;stroke-dashoffset:0;stroke-opacity:1;color-rendering:auto;image-rendering:auto;shape-rendering:auto;text-rendering:auto;enable-background:accumulate"
           d="m -113.125,-127.61211 0,4.86914 0.58789,0 13.619141,0 0,-4.86914 -14.207031,0 z m 1.17383,1.17383 11.86133,0 0,2.52344 -11.86133,0 0,-2.52344 z"
           id="polygon3716"
           inkscape:connector-curvature="0" />
        <path
           style="color:#000000;font-style:normal;font-variant:normal;font-weight:normal;font-stretch:normal;font-size:medium;line-height:normal;font-family:sans-serif;text-indent:0;text-align:start;text-decoration:none;text-decoration-line:none;text-decoration-style:solid;text-decoration-color:#000000;letter-spacing:normal;word-spacing:normal;text-transform:none;direction:ltr;block-progression:tb;writing-mode:lr-tb;baseline-shift:baseline;text-anchor:start;white-space:normal;clip-rule:nonzero;display:inline;overflow:visible;visibility:visible;opacity:1;isolation:auto;mix-blend-mode:normal;color-interpolation:sRGB;color-interpolation-filters:linearRGB;solid-color:#000000;solid-opacity:1;fill:#000000;fill-opacity:1;fill-rule:nonzero;stroke:none;stroke-width:1.17299998;stroke-linecap:butt;stroke-linejoin:miter;stroke-miterlimit:4;stroke-dasharray:none;stroke-dashoffset:0;stroke-opacity:1;color-rendering:auto;image-rendering:auto;shape-rendering:auto;text-rendering:auto;enable-background:accumulate"
           d="m -105.37305,-144.30469 c -4.14999,0 -7.52539,3.37735 -7.52539,7.52735 0,4.14999 3.3754,7.52734 7.52539,7.52734 4.15,0 7.527347,-3.37735 7.527347,-7.52734 0,-4.15 -3.377347,-7.52735 -7.527347,-7.52735 z m 0,1.17383 c 3.51601,0 6.355472,2.83751 6.355472,6.35352 0,3.516 -2.839462,6.35546 -6.355472,6.35546 -3.516,0 -6.35351,-2.83946 -6.35351,-6.35546 0,-3.51601 2.83751,-6.35352 6.35351,-6.35352 z"
           id="path3720"
           inkscape:connector-curvature="0" />
        <path
           style="color:#000000;font-style:normal;font-variant:normal;font-weight:normal;font-stretch:normal;font-size:medium;line-height:normal;font-family:sans-serif;text-indent:0;text-align:start;text-decoration:none;text-decoration-line:none;text-decoration-style:solid;text-decoration-color:#000000;letter-spacing:normal;word-spacing:normal;text-transform:none;direction:ltr;block-progression:tb;writing-mode:lr-tb;baseline-shift:baseline;text-anchor:start;white-space:normal;clip-rule:nonzero;display:inline;overflow:visible;visibility:visible;opacity:1;isolation:auto;mix-blend-mode:normal;color-interpolation:sRGB;color-interpolation-filters:linearRGB;solid-color:#000000;solid-opacity:1;fill:#000000;fill-opacity:1;fill-rule:nonzero;stroke:none;stroke-width:1.17299998;stroke-linecap:butt;stroke-linejoin:miter;stroke-miterlimit:4;stroke-dasharray:none;stroke-dashoffset:0;stroke-opacity:1;color-rendering:auto;image-rendering:auto;shape-rendering:auto;text-rendering:auto;enable-background:accumulate"
           d="m -105.37305,-141.99609 c -2.87494,0 -5.21875,2.34337 -5.21875,5.21875 0,2.87538 2.34389,5.21875 5.21875,5.21875 2.87502,0 5.21875,-2.34425 5.21875,-5.21875 0,-2.87451 -2.34379,-5.21819 -5.21875,-5.21875 z m 0,1.17382 c 2.24105,4.4e-4 4.04493,1.80443 4.04493,4.04493 0,2.24049 -1.80395,4.04492 -4.04493,4.04492 -2.24113,0 -4.04492,-1.8033 -4.04492,-4.04492 0,-2.24162 1.80387,-4.04493 4.04492,-4.04493 z"
           id="path3722"
           inkscape:connector-curvature="0" />
        <path
           style="color:#000000;font-style:normal;font-variant:normal;font-weight:normal;font-stretch:normal;font-size:medium;line-height:normal;font-family:sans-serif;text-indent:0;text-align:start;text-decoration:none;text-decoration-line:none;text-decoration-style:solid;text-decoration-color:#000000;letter-spacing:normal;word-spacing:normal;text-transform:none;direction:ltr;block-progression:tb;writing-mode:lr-tb;baseline-shift:baseline;text-anchor:start;white-space:normal;clip-rule:nonzero;display:inline;overflow:visible;visibility:visible;opacity:1;isolation:auto;mix-blend-mode:normal;color-interpolation:sRGB;color-interpolation-filters:linearRGB;solid-color:#000000;solid-opacity:1;fill:#000000;fill-opacity:1;fill-rule:nonzero;stroke:none;stroke-width:0.906802;stroke-linecap:butt;stroke-linejoin:miter;stroke-miterlimit:4;stroke-dasharray:none;stroke-dashoffset:0;stroke-opacity:1;color-rendering:auto;image-rendering:auto;shape-rendering:auto;text-rendering:auto;enable-background:accumulate"
           d="m -117.72461,-147.23242 0,3.03515 0.45304,0 50.371358,0 0,-0.9082 -0.906085,0 -0.04693,0 -48.965293,0 0,-1.2207 48.965293,0 0.04693,0 0.906085,0 0,-0.90625 -50.824398,0 z"
           id="polygon3728"
           inkscape:connector-curvature="0" />
        <path
           style="color:#000000;font-style:normal;font-variant:normal;font-weight:normal;font-stretch:normal;font-size:medium;line-height:normal;font-family:sans-serif;text-indent:0;text-align:start;text-decoration:none;text-decoration-line:none;text-decoration-style:solid;text-decoration-color:#000000;letter-spacing:normal;word-spacing:normal;text-transform:none;direction:ltr;block-progression:tb;writing-mode:lr-tb;baseline-shift:baseline;text-anchor:start;white-space:normal;clip-rule:nonzero;display:inline;overflow:visible;visibility:visible;opacity:1;isolation:auto;mix-blend-mode:normal;color-interpolation:sRGB;color-interpolation-filters:linearRGB;solid-color:#000000;solid-opacity:1;fill:#000000;fill-opacity:1;fill-rule:nonzero;stroke:none;stroke-width:1.17299998;stroke-linecap:butt;stroke-linejoin:miter;stroke-miterlimit:4;stroke-dasharray:none;stroke-dashoffset:0;stroke-opacity:1;color-rendering:auto;image-rendering:auto;shape-rendering:auto;text-rendering:auto;enable-background:accumulate"
           d="m -110.15039,-152.87109 c -1.10925,0 -2.02149,0.91003 -2.02149,2.01953 0,1.10949 0.91224,2.02148 2.02149,2.02148 1.10925,0 2.02148,-0.91224 2.02148,-2.02148 0,-1.10925 -0.91223,-2.01953 -2.02148,-2.01953 z m 0,1.17187 c 0.47575,0 0.84766,0.3719 0.84766,0.84766 0,0.47575 -0.37191,0.84961 -0.84766,0.84961 -0.47575,0 -0.84766,-0.37411 -0.84766,-0.84961 0,-0.47551 0.37191,-0.84766 0.84766,-0.84766 z"
           id="path3730"
           inkscape:connector-curvature="0" />
        <path
           inkscape:connector-curvature="0"
           style="opacity:0.98999999;fill:none;fill-opacity:1;stroke-width:2.34599996;stroke-miterlimit:4;stroke-dasharray:none"
           d="m -67.818359,-159.81836 0,0.0547 c 0.0071,0.002 0.01229,0.002 0.01953,0.004 0.08226,0.0267 0.130875,0.0438 0.197266,0.0508 0.01609,-0.003 0.03104,-0.008 0.04687,-0.01 0.06428,-0.007 0.128859,-0.009 0.19336,-0.0137 0.197802,-0.006 0.438434,0.004 0.634766,0.006 l 0,-0.0918 -1.091797,0 z m 1.0625,7.36914 c -0.04753,0.002 -0.09504,0.005 -0.142579,0.008 0.03245,0.0233 0.06818,0.0483 0.09375,0.0723 0.02602,9e-5 0.05211,-1e-5 0.07813,0 l 0,-0.0801 c -0.0098,-2e-5 -0.01954,2e-5 -0.0293,0 z m 0.0293,1.26367 c -0.0033,0.007 -0.0083,0.0165 -0.01172,0.0234 0.0037,0.005 0.0081,0.009 0.01172,0.0137 l 0,-0.0371 z m -0.996094,1.11719 c -0.0319,8.6e-4 -0.06381,0.001 -0.0957,0.002 l 0,22.24805 1.091797,0 0,-21.27344 c -0.02904,-3e-4 -0.04739,4.7e-4 -0.0918,0 1.37e-4,0.0944 8.3e-5,0.18885 0,0.28321 0.0167,0.44001 -0.0572,-0.24203 -0.28125,-0.27149 -0.892277,-0.1173 0.870938,0.96297 -0.02734,0.9082 -0.405615,-0.0247 -0.625428,-0.23069 -0.599609,-0.64453 9.4e-5,-0.13706 5.78e-4,-0.27505 0,-0.41211 7.3e-5,-0.15834 0.003,-0.31627 0,-0.4746 -0.0038,-0.12198 -5.49e-4,-0.24332 0.0039,-0.36524 z"
           id="rect8227" />
      </g>
    </g>
  </g>
</svg>
